# xmcd
#
# Track frame offsets:
#	150
#	15027
#	31760
#	50435
#	61625
#	79637
#	99822
#	121062
#	139027
#
# Disc length: 2146 seconds
#
# Revision: 2
# Processed by: cddbd v1.5.2PL0 Copyright (c) Steve Scherf et al.
# Submitted via: audiograbber 1.83.01
#
DISCID=53086009
DTITLE=The Bluesbusters - Accept No Substitute
DYEAR=1986
DGENRE=Blues
TTITLE0=Phone Don't Ring
TTITLE1=Miss Clara's Cookin
TTITLE2=Dixie Highway
TTITLE3=Movin To The Country
TTITLE4=Certain People
TTITLE5=To The Left
TTITLE6=Goin Fishin
TTITLE7=Stone Crazy
TTITLE8=Down On The Farm
EXTD=
EXTT0=
EXTT1=
EXTT2=
EXTT3=
EXTT4=
EXTT5=
EXTT6=
EXTT7=
EXTT8=
PLAYORDER=
